Coordinates
version=1
nRows=14
nColumns=42
inDegrees=yes

Units are S.I. units (second, meters, Newtons, ...)
If the header above contains a line with 'inDegrees', this indicates whether rotational values are in degrees (yes) or radians (no).

endheader
time	pelvis_tilt	pelvis_list	pelvis_rotation	pelvis_tx	pelvis_ty	pelvis_tz	hip_flexion_r	hip_adduction_r	hip_rotation_r	knee_angle_r	knee_adduction_r	knee_angle_r_beta	ankle_angle_r	subtalar_angle_r	mtp_angle_r	hip_flexion_l	hip_adduction_l	hip_rotation_l	knee_angle_l	knee_adduction_l	knee_angle_l_beta	ankle_angle_l	subtalar_angle_l	mtp_angle_l	lumbar_extension	lumbar_bending	lumbar_rotation	arm_flex_r	arm_add_r	arm_rot_r	elbow_flex_r	pro_sup_r	wrist_flex_r	wrist_dev_r	arm_flex_l	arm_add_l	arm_rot_l	elbow_flex_l	pro_sup_l	wrist_flex_l	wrist_dev_l
      1.65000000	      7.22215082	     -0.67031945	      0.20499945	      0.94647808	      1.00294399	     -0.22529764	     17.69266646	     -5.17004436	     -7.65030232	     20.18280466	      8.76044619	      0.35225639	      1.41829112	     -7.51612687	     -7.51265098	    -19.42435320	     -3.59433759	      0.73258713	      6.05922026	     12.22172979	      0.10575334	     13.76885612	      0.50839098	     -7.51265098	    -16.50005318	     -0.31445056	     -3.42087281	    -11.30949240	     -6.61894254	    -16.43253606	     10.23231556	     90.00000001	      0.00000000	      0.00000000	     19.37446351	    -20.53813720	     -1.11955418	     39.28749154	     90.00000001	      0.00000000	      0.00000000
      1.66000000	      7.11789864	     -0.60182125	      0.50204351	      0.96063403	      0.99982283	     -0.22526634	     17.61220495	     -5.18517938	     -8.86729621	     16.69098474	      8.81274636	      0.29131264	      1.75730110	     -5.79951964	     -7.51211805	    -20.10590977	     -3.65245768	      0.75847601	      6.24656541	     12.24521516	      0.10902313	     14.39863370	      1.00630451	     -7.51211805	    -16.37012301	     -0.22404936	     -3.75350541	    -12.11103835	     -6.40610600	    -16.65943874	     10.22233568	     90.00000001	      0.00000000	      0.00000000	     20.09658005	    -21.05380719	     -0.47999669	     40.31396205	     90.00000001	      0.00000000	      0.00000000
      1.67000000	      6.97933880	     -0.42568277	      0.80143294	      0.97486858	      0.99658912	     -0.22532812	     17.61800790	     -5.38568487	     -9.98549024	     13.60141894	      9.09682322	      0.23738954	      2.14859331	     -4.16743503	     -7.51164549	    -20.71828502	     -3.58145361	      0.81450293	      6.51668765	     12.21264311	      0.11373766	     14.99103652	      1.43398308	     -7.51164549	    -16.20550822	     -0.24072046	     -4.12431541	    -12.85462586	     -6.21466042	    -16.86529654	     10.23659278	     90.00000001	      0.00000000	      0.00000000	     20.74851520	    -21.55900306	      0.10891512	     41.31676535	     90.00000001	      0.00000000	      0.00000000
      1.68000000	      6.64801380	     -0.10125723	      1.03789614	      0.98903832	      0.99308737	     -0.22544392	     17.94479702	     -5.78589858	    -10.81398683	     11.02713934	      9.55339379	      0.19245989	      2.40283838	     -2.83784327	     -7.51140989	    -21.06119833	     -3.31760921	      0.99324355	      6.89231661	     12.16177147	      0.12029362	     15.49679076	      1.66520595	     -7.51140989	    -15.84125269	     -0.42386498	     -4.46555112	    -13.57511954	     -6.04138247	    -17.02034535	     10.32416940	     90.00000001	      0.00000000	      0.00000000	     21.36774415	    -21.96967484	      0.48302685	     42.18253054	     90.00000001	      0.00000000	      0.00000000
      1.69000000	      6.70471644	     -0.09827390	      1.41990556	      1.00384726	      0.99012121	     -0.22544122	     17.77725621	     -5.86368284	    -11.96052413	      8.85161905	     10.01492185	      0.15448990	      2.76081522	     -1.33942462	     -7.51100686	    -21.90388383	     -3.50602714	      1.09640495	      7.17814677	     12.15742707	      0.12528230	     15.94689821	      2.09042747	     -7.51100686	    -15.85063259	     -0.23869052	     -4.86166169	    -14.18050700	     -5.91390717	    -17.36920561	     10.30672814	     90.00000001	      0.00000000	      0.00000000	     21.80654972	    -22.46032415	      1.07722073	     43.22400590	     90.00000001	      0.00000000	      0.00000000
      1.70000000	      6.37414486	      0.11363988	      1.63654609	      1.01844543	      0.98676516	     -0.22552910	     18.21605697	     -6.15471933	    -12.48616826	      7.32391863	     10.52267051	      0.12782649	      2.89789223	     -0.39561816	     -7.51084998	    -22.23882516	     -3.36527236	      1.33098015	      7.62164839	     12.08998756	      0.13302286	     16.28277295	      2.19854237	     -7.51084998	    -15.45254761	     -0.29308128	     -5.15934192	    -14.77868993	     -5.82738550	    -17.56965749	     10.41354072	     90.00000001	      0.00000000	      0.00000000	     22.23472905	    -22.76215765	      1.26588998	     43.93191904	     90.00000001	      0.00000000	      0.00000000
      1.71000000	      6.41997334	      0.05902707	      2.04730059	      1.03347883	      0.98401592	     -0.22542574	     18.17776555	     -6.11208922	    -13.22748616	      6.19845955	     10.80948000	      0.10818353	      3.19975212	      0.72787481	     -7.51049718	    -22.95434981	     -3.68381896	      1.59113345	      8.13106088	     12.13854656	      0.14191378	     16.56465334	      2.49402149	     -7.51049718	    -15.44755857	     -0.04551128	     -5.56792961	    -15.19370250	     -5.74513068	    -18.02440020	     10.33419073	     90.00000001	      0.00000000	      0.00000000	     22.47842307	    -23.17644310	      1.68908520	     44.90136974	     90.00000001	      0.00000000	      0.00000000
      1.72000000	      6.20353044	      0.09000153	      2.32241296	      1.04846010	      0.98114284	     -0.22537261	     18.54679188	     -6.11675384	    -13.35023258	      5.63678444	     10.99931202	      0.09838045	      3.30953637	      1.32618428	     -7.51032478	    -23.32135648	     -3.81351528	      1.93098768	      8.75889566	     12.11707977	      0.15287157	     16.71451654	      2.55059844	     -7.51032478	    -15.16041594	      0.10057096	     -5.87419559	    -15.61452259	     -5.71707729	    -18.26819674	     10.39688426	     90.00000001	      0.00000000	      0.00000000	     22.69009643	    -23.40845931	      1.77581079	     45.56572652	     90.00000001	      0.00000000	      0.00000000
      1.73000000	      6.05470782	      0.01902468	      2.57296702	      1.06364583	      0.97856018	     -0.22520470	     18.89144433	     -5.97334782	    -13.29312813	      5.59886765	     11.05867856	      0.09771867	      3.31886025	      1.59945839	     -7.51020334	    -23.73322920	     -4.05809359	      2.30537077	      9.44711382	     12.09370694	      0.16488324	     16.70065256	      2.57175358	     -7.51020334	    -14.93091094	      0.35796694	     -6.11142651	    -15.95216535	     -5.72003314	    -18.44326113	     10.41943614	     90.00000001	      0.00000000	      0.00000000	     22.79846775	    -23.58355046	      1.81835133	     46.16642951	     90.00000001	      0.00000000	      0.00000000
      1.74000000	      6.02942842	     -0.37152820	      2.99439412	      1.07917502	      0.97639669	     -0.22478134	     19.00454891	     -5.41603805	    -13.30404827	      5.79792512	     10.85665859	      0.10119288	      3.08479577	      1.72700266	     -7.50979287	    -24.18755598	     -4.81943772	      2.67620170	     10.29035620	     12.24840876	      0.17960060	     16.66935510	      2.70539540	     -7.50979287	    -14.80518372	      0.96110415	     -6.49541249	    -16.02237888	     -5.75843850	    -19.09761741	     10.14675331	     90.00000001	      0.00000000	      0.00000000	     22.67444484	    -23.84563941	      1.89063062	     46.91608139	     90.00000001	      0.00000000	      0.00000000
      1.75000000	      5.90803148	     -0.50883700	      3.17519307	      1.09483275	      0.97436757	     -0.22471110	     19.29213631	     -5.20886952	    -12.71475210	      6.45183506	     10.86885639	      0.11260576	      2.85392017	      1.79243155	     -7.50972448	    -24.57946092	     -5.04537922	      3.22376972	     11.06492817	     12.11569929	      0.19311943	     16.41602276	      2.77522381	     -7.50972448	    -14.55792263	      1.31738767	     -6.64880478	    -16.27065127	     -5.88774578	    -19.16219418	     10.26396670	     90.00000001	      0.00000000	      0.00000000	     22.61812372	    -23.84661550	      1.85029134	     47.15679680	     90.00000001	      0.00000000	      0.00000000
      1.76000000	      5.79517347	     -0.94695480	      3.49350302	      1.11054840	      0.97268055	     -0.22414568	     19.69368521	     -4.63636963	    -12.67490950	      7.73185159	     10.61124322	      0.13494627	      1.97023773	      1.05388917	     -7.50955871	    -24.71884724	     -5.81380501	      3.45613882	     12.34406304	     12.25437974	      0.21544454	     15.80380461	      2.34746280	     -7.50955871	    -14.33089912	      1.96609051	     -6.94380848	    -16.28178142	     -5.98362764	    -19.36387670	     10.21102741	     90.00000001	      0.00000000	      0.00000000	     22.16668881	    -23.97793102	      1.59390366	     47.92036884	     90.00000001	      0.00000000	      0.00000000
      1.77000000	      5.69302460	     -1.43925749	      3.76350723	      1.12656349	      0.97140709	     -0.22366350	     19.99165636	     -4.03886253	    -12.33780695	      9.04942864	     10.42266210	      0.15794233	      0.80924890	      0.26338888	     -7.50939485	    -24.88155887	     -6.57006902	      3.83495674	     13.55869709	     12.33753471	      0.23664391	     15.06969895	      2.03925855	     -7.50939485	    -14.07466820	      2.69170965	     -7.16128398	    -16.22798154	     -6.16255534	    -19.59070376	     10.10493849	     90.00000001	      0.00000000	      0.00000000	     21.69240119	    -23.97672694	      1.32197758	     48.32255959	     90.00000001	      0.00000000	      0.00000000
      1.78000000	      5.67520999	     -1.88725806	      3.95014057	      1.14260294	      0.97070155	     -0.22307994	     20.20974037	     -3.49327422	    -11.95587184	     10.57792364	     10.22689900	      0.18461960	     -0.55226262	     -0.48874915	     -7.50925965	    -25.02614751	     -7.28222111	      4.14831002	     14.93249081	     12.51305545	      0.26062113	     14.00809443	      1.71746986	     -7.50925965	    -13.93091564	      3.35997194	     -7.27483478	    -16.10842001	     -6.31271488	    -19.74959732	     10.10592191	     90.00000001	      0.00000000	      0.00000000	     21.17280932	    -23.83826328	      1.01493592	     48.58809938	     90.00000001	      0.00000000	      0.00000000
